# xmcd
#
# Track frame offsets:
#	182
#	38187
#	67602
#	91537
#	120312
#	151945
#	179472
#	205147
#	233570
#
# Disc length: 3515 seconds
#
# Revision: 1
# Processed by: cddbd v1.5.1PL0 Copyright (c) Steve Scherf et al.
# Submitted via: EasyCDDAExtractor 7.0.4.1
#
DISCID=5d0db909
DTITLE=The Frogmen - a new home
DYEAR=1900
DGENRE=
TTITLE0=New home
TTITLE1=Slips rmx
TTITLE2=Phunky
TTITLE3=Oh Oh!!
TTITLE4=It's over
TTITLE5=Drumpet
TTITLE6=Slips
TTITLE7=Casa socorro
TTITLE8=Open up
EXTD=
EXTT0=
EXTT1=
EXTT2=
EXTT3=
EXTT4=
EXTT5=
EXTT6=
EXTT7=
EXTT8=
PLAYORDER=
